leg39_ForwardTool_states
nRows=4
nColumns=41

# SIMM Motion File Header:
name leg39_ForwardTool_states
datacolumns 41
datarows 4
otherdata 1
range 0.29914622999999840000 0.30111230999999838000
endheader
time	pelvis_tilt	hip_angle_r	knee_angle_r	tib_tx_r	tib_ty_r	pat_angle_r	pat_tx_r	pat_ty_r	ankle_angle_r	subtalar_angle_r	mtp_angle_r	pelvis_tilt_u	hip_angle_r_u	knee_angle_r_u	tib_tx_r_u	tib_ty_r_u	pat_angle_r_u	pat_tx_r_u	pat_ty_r_u	ankle_angle_r_u	subtalar_angle_r_u	mtp_angle_r_u	bifemlh_r.activation	bifemlh_r.fiber_length	bifemsh_r.activation	bifemsh_r.fiber_length	glut_max2_r.activation	glut_max2_r.fiber_length	psoas_r.activation	psoas_r.fiber_length	rect_fem_r.activation	rect_fem_r.fiber_length	vas_int_r.activation	vas_int_r.fiber_length	med_gas_r.activation	med_gas_r.fiber_length	soleus_r.activation	soleus_r.fiber_length	tib_ant_r.activation	tib_ant_r.fiber_length
      0.29914622999999840000	     -0.00000000000008333240	     24.66277867129671400000	    -21.06127872765030800000	     -0.00092301770785278815	     -0.46684463062756959000	     13.89782822202535200000	      0.05251442999269979900	     -0.02456555487094871900	      6.75813875944759350000	      0.00000000000001326103	      0.00000000000000967346	     -0.00000000000036962104	    -31.79818617423963200000	    382.67565042576609000000	     -0.08886173804200170300	      0.05505903611101097000	    -97.28567894867447300000	      0.06903647162153164800	     -0.01606651049432735600	     29.05369134351566300000	     -0.00000000000013478927	      0.00000000000032742062	      0.13419887761637594000	      0.11907472623661526000	      0.02334137207514386200	      0.18796668718196141000	      0.07919468261592257900	      0.11468968269716957000	      0.05339053883093831900	      0.08882321316181179800	      0.03479251491006935000	      0.11585466506217774000	      0.09539529601781041000	      0.09682440562591845800	      0.02011212980746950400	      0.10177930012484383000	      0.02000000000000000000	      0.09542822514674005600	      0.33151126821615134000	      0.08149886740446968300
      0.29980158999999840000	     -0.00000000000008356918	     24.64183909421362300000	    -20.81076477828403500000	     -0.00098142817256603536	     -0.46680875128175758000	     13.83338136729166100000	      0.05255945615911376100	     -0.02457604696684975700	      6.77718061165308240000	      0.00000000000001317160	      0.00000000000000988720	     -0.00000000000035072959	    -32.10293992071743200000	    381.82678680650446000000	     -0.08939207814037571100	      0.05443575266891701600	    -99.39493914803546200000	      0.06837143938854353700	     -0.01595238085707407400	     29.05791423626197200000	     -0.00000000000014274858	      0.00000000000032345757	      0.13529100718380258000	      0.11919566785834509000	      0.02328707306735917900	      0.18810340645558143000	      0.07985993981951847200	      0.11466306151621390000	      0.05284792547117419400	      0.08884716650093227300	      0.03461713101449018900	      0.11563758486273816000	      0.09562736695911049100	      0.09659766609050797500	      0.02011030764066145200	      0.10190442854891113000	      0.02000000000000000000	      0.09544375355233188100	      0.33148677303732182000	      0.08148435224318899300
      0.30045694999999839000	     -0.00000000000008380019	     24.62070252393678900000	    -20.56081777887510500000	     -0.00104018466349341690	     -0.46677328093854153000	     13.76754361454925000000	      0.05260404447949756900	     -0.02458646340308423900	      6.79622587185866140000	      0.00000000000001307979	      0.00000000000001009578	     -0.00000000000034890831	    -32.39904007477554200000	    380.94441838324747000000	     -0.08991742388790781300	      0.05381074057209484600	   -101.52984478482030000000	      0.06770012347546705600	     -0.01583558076553728800	     29.06421746878428900000	     -0.00000000000014892138	      0.00000000000032924450	      0.13670881311235725000	      0.11931577767619092000	      0.02323365644626478400	      0.18823993126059510000	      0.07948550303759159600	      0.11463731800844978000	      0.05231412985645111900	      0.08887123219622701500	      0.03441582688306756700	      0.11542103144052789000	      0.09472596884013219400	      0.09637200047396113400	      0.02010851508499740500	      0.10202956352693471000	      0.02000000000000000000	      0.09545925205285960000	      0.33126170856325377000	      0.08146989008459119800
      0.30111230999999838000	     -0.00000000000008402963	     24.59937510858353000000	    -20.31146121655998700000	     -0.00109928342918567050	     -0.46673822088915867000	     13.70029905616607600000	      0.05264819063859932400	     -0.02459680238307644300	      6.81527589376320810000	      0.00000000000001298024	      0.00000000000001032125	     -0.00000000000034562291	    -32.68526730349444900000	    380.02476353108523000000	     -0.09043651697707494300	      0.05318364618128609800	   -103.68785927188028000000	      0.06702208463899044000	     -0.01571600620052650300	     29.07201981625096100000	     -0.00000000000015578107	      0.00000000000035061194	      0.13808642457931936000	      0.11943470254209655000	      0.02318110787262496800	      0.18837568361304635000	      0.07898580745922349800	      0.11461334012688199000	      0.05178900869389543200	      0.08889540506303536500	      0.03421406333641198400	      0.11520507911728389000	      0.09369345197914665000	      0.09614840888076210700	      0.02010675165928110800	      0.10215469407795774000	      0.02000000000000000000	      0.09547472486237457100	      0.33101424161918447000	      0.08145552371291461800
